<?xml version='1.0' encoding='utf-8'?>
<svg xmlns="http://www.w3.org/2000/svg" width="64" height="64" viewBox="6 24 56 56" fill="none"><!-- SVG created with Arrow, by QuiverAI (https://quiver.ai); extracted from supplied artwork. --><path d="m36.38 30.11c-3.744-0.64-6.272 0.128-6.784 3.968-0.576 2.848-3.616 4-6.272 2.752-4.352-2.016-8.576 2.4-6.112 6.4 2.432 3.328 1.184 6.272-2.24 6.88-4.416 0.992-3.904 7.968 0.96 8.832 3.168 0.512 3.488 3.616 1.856 6.24-2.4 3.52 1.856 7.936 5.6 6.048 3.68-2.08 6.24-1.184 6.624 2.336 0.416 2.304 2.368 3.04 4.608 2.912 2.784 0.032 4.864-1.344 5.28-4.32 0.64-2.656 3.36-3.104 5.728-1.472 4 2.72 9.056-2.272 6.432-5.856-2.016-2.72-1.056-5.6 2.24-6.144 4.384-1.12 4.128-8.192-0.256-8.96-3.008-0.576-3.552-3.104-1.728-5.664 1.696-2.368 0.864-4.8-1.6-6.784-1.344-0.672-2.816-0.128-4.48 0.576-2.976 1.12-5.728-0.16-6.24-3.584-0.448-2.336-1.696-4.032-3.616-4.16z" stroke="#080808" stroke-linecap="round" stroke-linejoin="round" stroke-width="3.5" /><circle cx="34" cy="53.55" r="7.746" stroke="#080808" stroke-width="3.5" /></svg>