<?xml version='1.0' encoding='utf-8'?>
<svg xmlns="http://www.w3.org/2000/svg" width="64" height="64" viewBox="66 97 58 58" fill="none"><!-- SVG created with Arrow, by QuiverAI (https://quiver.ai); extracted from supplied artwork. --><path d="m97.09 105.5c-4 3.648-9.184 8.256-12.58 11.78-1.344 0.992-5.632 0.672-7.904 1.152-2.56 0.608-3.04 3.04-3.008 6.176 0.032 1.728 0 3.552 0.032 5.44 0.096 3.264 1.312 4.864 4.384 4.864 2.528 0.064 5.76-0.704 6.848 0.16 3.744 3.168 9.92 10.05 12 10.02 2.464-0.128 2.112-3.616 2.048-8.352 0.128-3.936 0.256-8.16 0.096-12.8 0-4.32 0.256-9.12 0.256-13.22 0.256-4.352-0.448-5.824-2.176-5.216z" stroke="#080808" stroke-linecap="round" stroke-linejoin="round" stroke-width="3.5" /><path d="m107.2 115.2 8.128-5.408" stroke="#080808" stroke-linecap="round" stroke-width="3.5" /><path d="m107.7 124.4 10.46-0.96" stroke="#080808" stroke-linecap="round" stroke-width="3.5" /><path d="m107 134 6.88 3.968" stroke="#080808" stroke-linecap="round" stroke-width="3.5" /></svg>